<svg width="100" height="100" viewBox="0 0 100 100" fill="none" xmlns="http://www.w3.org/2000/svg">
  <!-- Corpo do lobo -->
  <path d="M30 50C30 45 35 40 40 40C45 40 50 45 50 50L60 70C60 75 55 80 50 80C45 80 40 75 40 70L30 50Z" fill="#000"/>
  <!-- Cabeça -->
  <ellipse cx="50" cy="30" rx="20" ry="25" fill="#000"/>
  <!-- Orelhas -->
  <path d="M35 20L40 5L45 20L35 20Z" fill="#000"/>
  <path d="M55 20L60 5L65 20L55 20Z" fill="#000"/>
  <!-- Focinho -->
  <ellipse cx="50" cy="35" rx="8" ry="10" fill="#fff"/>
  <!-- Nariz -->
  <ellipse cx="50" cy="38" rx="3" ry="3" fill="#000"/>
  <!-- Olhos -->
  <circle cx="42" cy="28" r="4" fill="#fff"/>
  <circle cx="58" cy="28" r="4" fill="#fff"/>
  <circle cx="42" cy="28" r="2" fill="#000"/>
  <circle cx="58" cy="28" r="2" fill="#000"/>
  <!-- Cauda -->
  <path d="M70 50Q80 40 85 45Q90 50 88 55Q85 60 75 55L70 50Z" fill="#000"/>
</svg>
